<svg width="100" height="36" fill="none" xmlns="http://www.w3.org/2000/svg"><path d="M35.195 17.518C35.195 7.842 27.31 0 17.585 0 7.856 0 0 7.842 0 17.518c0 9.676 7.857 17.518 17.584 17.518s17.61-7.842 17.61-17.518z" fill="#34E0A1"/><path d="M97.479 19.7c0 2.13-1.543 3.317-3.44 3.317-1.328 0-2.385-.486-3.224-1.565 1.354-1.751 2.683-4.016 4.064-6.494 1.708 1.508 2.6 3.017 2.6 4.743zM60.09 14.285c0 3.395-2.87 5.578-6.99 5.578-1.167 0-2.115-.161-3.064-.54 1.923-3.45 3.876-6.924 5.472-9.754 2.607.591 4.582 2.13 4.582 4.716zm5.664 11.158c2.52 0 4.523-1.699 6.611-4.555-.083.43-.109.835-.109 1.16 0 2.048 1.057 3.395 2.954 3.395 2.465 0 4.58-1.886 7.07-5.66-.353 1.026-.459 1.726-.459 2.4-.053 2.13 1.031 3.26 2.898 3.26 1.652 0 3.116-.808 4.523-2.182 1.057 1.348 2.656 2.182 4.93 2.182 3.063 0 5.825-2.13 5.825-5.712 0-2.56-1.464-4.798-3.955-6.846.27-.486.542-.97.813-1.482l-2.277-.809c-3.876 7.494-7.07 12.424-9.43 12.424-.65 0-.865-.404-.839-1.026 0-1.104.76-4.96 2.98-9.515h-2.791c-4.012 7.629-6.992 10.538-8.67 10.538-.73 0-1.058-.457-1.058-1.187 0-2.13.651-4.016 3.44-9.35H75.5c-3.845 6.602-6.826 10.537-9.347 10.537-.677 0-.974-.322-.974-1.052 0-2.344 3.198-8.22 8.425-15.606l-2.438-.834c-5.419 7.707-8.617 13.636-8.617 16.522.01 2.077 1.146 3.398 3.205 3.398zm-8.4-19.082l-2.385-.835c-.27.457-.542.943-.839 1.456-.406-.026-.84-.053-1.272-.053-7.586 0-13.494 3.96-13.494 9.73 0 3.207 2.006 5.093 4.173 5.98l1.137-1.968c-1.517-.621-2.792-1.995-2.792-4.043 0-4.581 4.986-7.358 10.837-7.358h.11c-3.305 5.847-7.369 13.288-10.432 18.783h2.845c1.084-1.995 2.356-4.312 3.658-6.685 1.272.565 2.71.835 4.226.835 4.93 0 9.456-3.047 9.456-8.06 0-3.316-2.356-5.712-5.852-6.71.218-.372.437-.72.625-1.072z" fill="#7446AF"/><path d="M24.086 16.549a2.302 2.302 0 00-2.302 2.317c0 1.265 1.03 2.29 2.302 2.29a2.297 2.297 0 002.303-2.29 2.3 2.3 0 00-2.303-2.317zm-13.004 0a2.302 2.302 0 00-2.303 2.317c0 1.265 1.03 2.29 2.303 2.29 1.245 0 2.303-1.025 2.303-2.29a2.317 2.317 0 00-2.303-2.317zm12.975 6.682c-2.412 0-4.388-1.94-4.388-4.365 0-2.426 1.98-4.365 4.388-4.365a4.357 4.357 0 014.388 4.365 4.357 4.357 0 01-4.388 4.365zm-12.975 0c-2.412 0-4.388-1.94-4.388-4.365 0-2.426 1.98-4.365 4.388-4.365a4.357 4.357 0 014.387 4.365 4.357 4.357 0 01-4.387 4.365zm6.502-4.5c0-2.856-2.114-5.338-4.877-6.386 1.49-.621 3.143-.97 4.877-.97 1.735 0 3.387.352 4.877.97-2.766 1.048-4.877 3.53-4.877 6.386zm10.864-4.634l2.114-2.317h-4.688a14.874 14.874 0 00-8.29-2.508c-3.09 0-5.907.917-8.29 2.508H4.58l2.141 2.317c-1.328 1.186-2.114 2.882-2.114 4.769 0 3.556 2.897 6.468 6.476 6.468 1.708 0 3.25-.674 4.417-1.726l2.085 2.265 2.058-2.265c1.167 1.052 2.736 1.726 4.418 1.726 3.605 0 6.502-2.912 6.502-6.468a6.449 6.449 0 00-2.114-4.77z" fill="#231F20"/></svg>